<svg xmlns="http://www.w3.org/2000/svg" viewBox="0 0 800 340" role="img" aria-labelledby="title desc">
  <title id="title">第129课：郁金香泡沫</title>
  <desc id="desc">原创课程示意图，视觉类型：cycle。</desc>
  <rect width="800" height="340" rx="22" fill="#fbfcfd"/>
  <g opacity=".14" stroke="#18324b" stroke-width="1"><path d="M30 52H770 M30 112H770 M30 172H770 M30 232H770 M30 292H770"/><path d="M90 28V316 M190 28V316 M290 28V316 M390 28V316 M490 28V316 M590 28V316 M690 28V316"/></g>
  <circle cx="390" cy="170" r="112" fill="none" stroke="#d7dfe7" stroke-width="26"/><path d="M390 58A112 112 0 0 1 502 170" fill="none" stroke="#2f6df6" stroke-width="26" stroke-linecap="round"/><path d="M502 170A112 112 0 0 1 390 282" fill="none" stroke="#129b8f" stroke-width="26" stroke-linecap="round"/><path d="M390 282A112 112 0 0 1 278 170" fill="none" stroke="#d49a31" stroke-width="26" stroke-linecap="round"/><path d="M278 170A112 112 0 0 1 390 58" fill="none" stroke="#e35d53" stroke-width="26" stroke-linecap="round"/><text x="357" y="166" fill="#172a3d" font-size="18" font-weight="900">状态</text><text x="338" y="191" fill="#627285" font-size="13">持续变化</text>
  <text x="30" y="328" fill="#627285" font-size="12">Market Thinking · lesson 129 · cycle</text>
</svg>
