<svg xmlns="http://www.w3.org/2000/svg" viewBox="0 0 800 340" role="img" aria-labelledby="title desc">
  <title id="title">第34课：High 1 与 High 2</title>
  <desc id="desc">原创课程示意图，视觉类型：pullback。</desc>
  <rect width="800" height="340" rx="22" fill="#fbfcfd"/>
  <g opacity=".14" stroke="#18324b" stroke-width="1"><path d="M30 52H770 M30 112H770 M30 172H770 M30 232H770 M30 292H770"/><path d="M90 28V316 M190 28V316 M290 28V316 M390 28V316 M490 28V316 M590 28V316 M690 28V316"/></g>
  <path d="M42 270L118 205L170 234L255 140L312 180L408 91L465 126L565 55L742 37" fill="none" stroke="#2f6df6" stroke-width="7" stroke-linecap="round" stroke-linejoin="round"/><path d="M118 205L170 234L255 140 M312 180L408 91" fill="none" stroke="#e35d53" stroke-width="6" stroke-linecap="round"/><circle cx="255" cy="140" r="10" fill="#fff" stroke="#f0b74f" stroke-width="5"/><circle cx="408" cy="91" r="10" fill="#fff" stroke="#f0b74f" stroke-width="5"/><text x="242" y="116" fill="#936319" font-size="15" font-weight="900">H1</text><text x="395" y="66" fill="#936319" font-size="15" font-weight="900">H2</text>
  <text x="30" y="328" fill="#627285" font-size="12">Market Thinking · lesson 34 · pullback</text>
</svg>
